{"title":"Mumbai 125 KM (Hindi) Full Movie DVDSCR XviD (MelB)","uid":11276525,"size":214643746,"categoryP":"video","categoryS":"movies","magnet":"?xt=urn:btih:0cf534f529ada03db1a999854bdb87c28e5ef69a&amp;dn=Mumbai+125+KM+%28Hindi%29+Full+Movie+DVDSCR+XviD+%28MelB%29&amp;tr=udp%3A%2F%2Ftracker.openbittorrent.com%3A80&amp;tr=udp%3A%2F%2Fopen.demonii.com%3A1337&amp;tr=udp%3A%2F%2Ftracker.coppersurfer.tk%3A6969&amp;tr=udp%3A%2F%2Fexodus.desync.com%3A6969","seeders":1,"leechers":0,"uploader":"MelB14k","files":-1,"time":1414162372,"description":"Screens:\n &lt;a href=&quot;\nhttp://ultraimg.com/images/Mumbai125KMHindiFullMovieDVDSCRXviDMelB.flv.png&quot; rel=&quot;nofollow&quot; target=&quot;_NEW&quot;&gt;\nhttp://ultraimg.com/images/Mumbai125KMHindiFullMovieDVDSCRXviDMelB.flv.png&lt;/a&gt; &lt;a href=&quot;\nhttp://ultraimg.com/images/Mumbai125KMHindiFullMovieDVDSCRXviDMelB.flv.0000.png&quot; rel=&quot;nofollow&quot; target=&quot;_NEW&quot;&gt;\nhttp://ultraimg.com/images/Mumbai125KMHindiFullMovieDVDSCRXviDMelB.flv.0000.png&lt;/a&gt; &lt;a href=&quot;\nhttp://ultraimg.com/images/Mumbai125KMHindiFullMovieDVDSCRXviDMelB.flv.0001.png&quot; rel=&quot;nofollow&quot; target=&quot;_NEW&quot;&gt;\nhttp://ultraimg.com/images/Mumbai125KMHindiFullMovieDVDSCRXviDMelB.flv.0001.png&lt;/a&gt; &lt;a href=&quot;\nhttp://ultraimg.com/images/Mumbai125KMHindiFullMovieDVDSCRXviDMelB.flv.0002.png&quot; rel=&quot;nofollow&quot; target=&quot;_NEW&quot;&gt;\nhttp://ultraimg.com/images/Mumbai125KMHindiFullMovieDVDSCRXviDMelB.flv.0002.png&lt;/a&gt; &lt;a href=&quot;\nhttp://ultraimg.com/images/Mumbai125KMHindiFullMovieDVDSCRXviDMelB.flv.0003.png&quot; rel=&quot;nofollow&quot; target=&quot;_NEW&quot;&gt;\nhttp://ultraimg.com/images/Mumbai125KMHindiFullMovieDVDSCRXviDMelB.flv.0003.png&lt;/a&gt; &lt;a href=&quot;\nhttp://ultraimg.com/images/Mumbai125KMHindiFullMovieDVDSCRXviDMelB.flv.0004.png&quot; rel=&quot;nofollow&quot; target=&quot;_NEW&quot;&gt;\nhttp://ultraimg.com/images/Mumbai125KMHindiFullMovieDVDSCRXviDMelB.flv.0004.png&lt;/a&gt; &lt;a href=&quot;\nhttp://ultraimg.com/images/Mumbai125KMHindiFullMovieDVDSCRXviDMelB.flv.0005.png&quot; rel=&quot;nofollow&quot; target=&quot;_NEW&quot;&gt;\nhttp://ultraimg.com/images/Mumbai125KMHindiFullMovieDVDSCRXviDMelB.flv.0005.png&lt;/a&gt; &lt;a href=&quot;\nhttp://ultraimg.com/images/Mumbai125KMHindiFullMovieDVDSCRXviDMelB.flv.0006.png&quot; rel=&quot;nofollow&quot; target=&quot;_NEW&quot;&gt;\nhttp://ultraimg.com/images/Mumbai125KMHindiFullMovieDVDSCRXviDMelB.flv.0006.png&lt;/a&gt; &lt;a href=&quot;\nhttp://ultraimg.com/images/Mumbai125KMHindiFullMovieDVDSCRXviDMelB.flv.0007.png&quot; rel=&quot;nofollow&quot; target=&quot;_NEW&quot;&gt;\nhttp://ultraimg.com/images/Mumbai125KMHindiFullMovieDVDSCRXviDMelB.flv.0007.png&lt;/a&gt; &lt;a href=&quot;\nhttp://ultraimg.com/images/Mumbai125KMHindiFullMovieDVDSCRXviDMelB.flv.0009.png&quot; rel=&quot;nofollow&quot; target=&quot;_NEW&quot;&gt;\nhttp://ultraimg.com/images/Mumbai125KMHindiFullMovieDVDSCRXviDMelB.flv.0009.png&lt;/a&gt; &lt;a href=&quot;\nhttp://ultraimg.com/images/Mumbai125KMHindiFullMovieDVDSCRXviDMelB.flv.0010.png&quot; rel=&quot;nofollow&quot; target=&quot;_NEW&quot;&gt;\nhttp://ultraimg.com/images/Mumbai125KMHindiFullMovieDVDSCRXviDMelB.flv.0010.png&lt;/a&gt; &lt;a href=&quot;\nhttp://ultraimg.com/images/Mumbai125KMHindiFullMovieDVDSCRXviDMelB.flv.0011.png&quot; rel=&quot;nofollow&quot; target=&quot;_NEW&quot;&gt;\nhttp://ultraimg.com/images/Mumbai125KMHindiFullMovieDVDSCRXviDMelB.flv.0011.png&lt;/a&gt;\n\nInfo:\n\nFormat                                   : Flash Video\nFile size                                : 203 MiB\nDuration                                 : 1h 36mn\nOverall bit rate                         : 295 Kbps\nTagging application                      : Yet Another Metadata Injector for FLV - Version 1.9\n\nVideo\nFormat                                   : AVC\nFormat/Info                              : Advanced Video Codec\nFormat profile                           : &lt;a class=&quot;__cf_email__&quot; href=&quot;/cdn-cgi/l/email-protection&quot; data-cfemail=&quot;bdf5d4dad5fdf18e938d&quot;&gt;[email&amp;#160;protected]&lt;/a&gt;&lt;script cf-hash='f9e31' type=&quot;text/javascript&quot;&gt;\n/* &lt;![CDATA[ */!function(){try{var t=&quot;currentScript&quot;in document?document.currentScript:function(){for(var t=document.getElementsByTagName(&quot;script&quot;),e=t.length;e--;)if(t[e].getAttribute(&quot;cf-hash&quot;))return t[e]}();if(t&amp;&amp;t.previousSibling){var e,r,n,i,c=t.previousSibling,a=c.getAttribute(&quot;data-cfemail&quot;);if(a){for(e=&quot;&quot;,r=parseInt(a.substr(0,2),16),n=2;a.length-n;n+=2)i=parseInt(a.substr(n,2),16)^r,e+=String.fromCharCode(i);e=document.createTextNode(e),c.parentNode.replaceChild(e,c)}}}catch(u){}}();/* ]]&gt; */&lt;/script&gt;\nFormat settings, CABAC                   : Yes\nFormat settings, ReFrames                : 4 frames\nCodec ID                                 : 7\nDuration                                 : 1h 36mn\nBit rate                                 : 150 Kbps\nWidth                                    : 640 pixels\nHeight                                   : 272 pixels\nDisplay aspect ratio                     : 2.35:1\nFrame rate mode                          : Constant\nFrame rate                               : 29.970 fps\nColor space                              : YUV\nChroma subsampling                       : 4:2:0\nBit depth                                : 8 bits\nScan type                                : Progressive\nBits/(Pixel*Frame)                       : 0.029\nStream size                              : 108 MiB (53%)\nWriting library                          : x264 core 138\nEncoding settings                        : cabac=1 / ref=2 / deblock=1:0:0 / analyse=0x3:0x113 / me=hex / subme=4 / psy=1 / psy_rd=1.00:0.00 / mixed_ref=0 / me_range=16 / chroma_me=1 / trellis=1 / 8x8dct=1 / cqm=0 / deadzone=21,11 / fast_pskip=1 / chroma_qp_offset=0 / threads=36 / lookahead_threads=2 / sliced_threads=0 / nr=0 / decimate=1 / interlaced=0 / bluray_compat=0 / constrained_intra=0 / bframes=3 / b_pyramid=2 / b_adapt=1 / b_bias=0 / direct=1 / weightb=1 / open_gop=0 / weightp=1 / keyint=250 / keyint_min=25 / scenecut=40 / intra_refresh=0 / rc_lookahead=20 / rc=crf / mbtree=1 / crf=26.0 / qcomp=0.60 / qpmin=0 / qpmax=69 / qpstep=4 / vbv_maxrate=800 / vbv_bufsize=4000 / crf_max=0.0 / nal_hrd=none / ip_ratio=1.40 / aq=1:1.00\n\nAudio\nFormat                                   : AAC\nFormat/Info                              : Advanced Audio Codec\nFormat profile                           : LC\nCodec ID                                 : 10\nDuration                                 : 1h 36mn\nBit rate                                 : 129 Kbps\nChannel(s)                               : 2 channels\nChannel positions                        : Front: L R\nSampling rate                            : 44.1 KHz\nCompression mode                         : Lossy\nStream size                              : 93.4 MiB (46%)","torrent":{"xt":"urn:btih:0cf534f529ada03db1a999854bdb87c28e5ef69a","amp;dn":"Mumbai+125+KM+%28Hindi%29+Full+Movie+DVDSCR+XviD+%28MelB%29","amp;tr":["udp%3A%2F%2Ftracker.openbittorrent.com%3A80","udp%3A%2F%2Fopen.demonii.com%3A1337","udp%3A%2F%2Ftracker.coppersurfer.tk%3A6969","udp%3A%2F%2Fexodus.desync.com%3A6969"],"infoHash":"0cf534f529ada03db1a999854bdb87c28e5ef69a","infoHashBuffer":{"type":"Buffer","data":[12,245,52,245,41,173,160,61,177,169,153,133,75,219,135,194,142,94,246,154]},"announce":[],"urlList":[]}}